# OBJ written from /Users/Kaa/Dropbox/Utopia_C_Project/Sprint2_GeryBox/Axis_Helper.obj
# Units	meters

o Mesh
v 2 0 0.1
v 2 0.1 6.12323e-18
v 2 1.22465e-17 -0.1
v 2 -0.1 -1.83697e-17
v 0 0.00871553 0.0996195
v 0 0.0996195 -0.00871553
v 0 -0.00871553 -0.0996195
v 0 -0.0996195 0.00871553
v 0.1 0 0
v 6.12323e-18 2.22045e-17 -0.1
v -0.1 2.71926e-33 -1.22465e-17
v -1.83697e-17 -2.22045e-17 0.1
v 0.0996195 2 -0.00871553
v -0.00871553 2 -0.0996195
v -0.0996195 2 0.00871553
v 0.00871553 2 0.0996195
v 0.1 0 0
v 6.12323e-18 0.1 0
v -0.1 1.22465e-17 0
v -1.83697e-17 -0.1 0
v 0.0996195 0.00871553 2
v -0.00871553 0.0996195 2
v -0.0996195 -0.00871553 2
v 0.00871553 -0.0996195 2
v 0.0998326 0.00383483 0.88
v -0.00383483 0.0998326 0.88
v -0.0998326 -0.00383483 0.88
v 0.00383483 -0.0998326 0.88
v 0.0998113 0.0043229 0.992
v -0.0043229 0.0998113 0.992
v -0.0998113 -0.0043229 0.992
v 0.0043229 -0.0998113 0.992
v 0.0997902 0.00480609 1.10288
v -0.00480609 0.0997902 1.10288
v -0.0997902 -0.00480609 1.10288
v 0.00480609 -0.0997902 1.10288
v 0.0997688 0.00529477 1.21502
v -0.00529477 0.0997688 1.21502
v -0.0997688 -0.00529477 1.21502
v 0.00529477 -0.0997688 1.21502
v 0.137988 0.00530049 0.887001
v -0.00530049 0.137988 0.887001
v -0.137988 -0.00530049 0.887001
v 0.00530049 -0.137988 0.887001
v 0.137959 0.00597513 0.985
v -0.00597513 0.137959 0.985
v -0.137959 -0.00597513 0.985
v 0.00597513 -0.137959 0.985
v 0.116766 0.00505723 0.989
v -0.00505723 0.116766 0.989
v -0.116766 -0.00505723 0.989
v 0.00505723 -0.116766 0.989
v 0.116741 0.00562249 1.10588
v -0.00562249 0.116741 1.10588
v -0.116741 -0.00562249 1.10588
v 0.00562249 -0.116741 1.10588
v 0.0998097 1 -0.00435776
v -0.00435776 1 -0.0998097
v -0.0998097 1 0.00435776
v 0.00435776 1 0.0998097
v 0.0997802 1.155 -0.00503322
v -0.00503322 1.155 -0.0997802
v -0.0997802 1.155 0.00503322
v 0.00503322 1.155 0.0997802
v 0.125241 1.004 -0.00546813
v -0.00546813 1.004 -0.125241
v -0.125241 1.004 0.00546813
v 0.00546813 1.004 0.125241
v 0.125204 1.151 -0.00631566
v -0.00631566 1.151 -0.125204
v -0.125204 1.151 0.00631566
v 0.00631566 1.151 0.125204
v 0.0555864 0.00486315 2.192
v -0.00486315 0.0555864 2.192
v -0.0555864 -0.00486315 2.192
v 0.00486315 -0.0555864 2.192
v 2.21 3.10862e-18 0.060402
v 2.21 0.060402 6.12323e-18
v 2.21 6.02922e-18 -0.060402
v 2.21 -0.060402 -1.52611e-17
v 0.0517192 2.162 -0.00452482
v -0.00452482 2.162 -0.0517192
v -0.0517192 2.162 0.00452482
v 0.00452482 2.162 0.0517192
vn -0.707104 -0.707104 -0.00294685
vn -0.693403 -0.72055 7.68125e-05
vn -0.679441 -0.733724 0.00310045
vn 0.76153 -0.639 0.108399
vn 0.757532 -0.650589 0.0536643
vn 0.75117 -0.660108 0.000963115
vn 0.742494 -0.669852 -0.00105202
vn 0.0668707 -0.17758 -0.981832
vn -0.17758 -0.0668707 -0.981832
vn -0.0530512 -0.182186 -0.981832
vn -0.182186 0.0530512 -0.981832
vn 0.0653928 -0.171113 -0.983079
vn -0.171113 -0.0653928 -0.983079
vn -0.0503536 -0.176126 -0.983079
vn -0.176126 0.0503536 -0.983079
vn -0.672268 -0.7403 0.00340832
vn -0.674062 -0.738675 -6.40523e-06
vn -0.675844 -0.737037 -0.00342113
vn -0.636588 0.138556 0.758655
vn -0.650676 0.0687518 0.756237
vn -0.656798 -7.91462e-05 0.754066
vn -0.670582 -0.00310512 0.741829
vn 0.157459 0.986553 0.0438071
vn 0.0438071 0.986553 -0.157459
vn 0.152252 0.986553 -0.0594298
vn -0.0594298 0.986553 -0.152252
vn 0.650589 0.757532 0.0536643
vn 0.639 0.76153 0.108399
vn 0.634437 0.756092 0.160672
vn 0.634437 0.756092 0.160672
vn 0.650676 0.0687518 -0.756237
vn 0.636588 0.138556 -0.758655
vn 0.629082 0.205402 -0.74971
vn 0.629082 0.205402 -0.74971
vn 0.707104 -0.707104 -0.00294685
vn 0.72055 -0.693403 7.68125e-05
vn 0.733724 -0.679441 0.00310045
vn 0.741948 -0.670458 -2.14417e-05
vn 0.740301 -0.672269 -0.00309814
vn 0.17758 0.0668707 -0.981832
vn 0.182186 -0.0530512 -0.981832
vn 0.171113 0.0653928 -0.983079
vn 0.176126 -0.0503536 -0.983079
vn 0.7403 -0.672268 0.00340832
vn 0.738675 -0.674062 -6.40523e-06
vn 0.737037 -0.675844 -0.00342113
vn 0.758655 0.138556 0.636588
vn 0.756237 0.0687518 0.650676
vn 0.754066 -7.91462e-05 0.656798
vn 0.741829 -0.00310512 0.670582
vn -0.0438071 0.986553 0.157459
vn 0.0594298 0.986553 0.152252
vn -0.757532 0.650589 0.0536643
vn -0.76153 0.639 0.108399
vn -0.756092 0.634437 0.160672
vn -0.756092 0.634437 0.160672
vn -0.756237 0.0687518 -0.650676
vn -0.758655 0.138556 -0.636588
vn -0.74971 0.205402 -0.629082
vn -0.74971 0.205402 -0.629082
vn -0.707104 0.707104 -0.00294685
vn -0.72055 0.693403 7.68125e-05
vn -0.733724 0.679441 0.00310045
vn -0.660108 -0.75117 0.000963115
vn -0.669852 -0.742494 -0.00105202
vn -0.670458 -0.741948 -2.14417e-05
vn -0.672269 -0.740301 -0.00309814
vn -0.0668707 0.17758 -0.981832
vn 0.0530512 0.182186 -0.981832
vn -0.0653928 0.171113 -0.983079
vn 0.0503536 0.176126 -0.983079
vn -0.7403 0.672268 0.00340832
vn -0.738675 0.674062 -6.40523e-06
vn -0.737037 0.675844 -0.00342113
vn -0.754066 -7.91462e-05 -0.656798
vn -0.741829 -0.00310512 -0.670582
vn -0.157459 0.986553 -0.0438071
vn -0.152252 0.986553 0.0594298
vn 0.756092 -0.634437 0.160672
vn 0.756092 -0.634437 0.160672
vn 1 0 0
vn 0.0892579 -0.704284 -0.704284
vn 0.0441782 -0.726716 -0.685516
vn -1.86443e-09 -0.737277 -0.67559
vn -0.00294686 -0.766041 -0.642785
vn -0.75117 0.660108 0.000963115
vn -0.742494 0.669852 -0.00105202
vn 0.18242 -0.052153 0.981837
vn 0.052153 0.18242 0.981837
vn 0.177228 0.0677296 0.981837
vn -0.0677296 0.177228 0.981837
vn -0.679436 -0.733719 -0.0048516
vn -0.677648 -0.735387 8.61905e-06
vn -0.67584 -0.737032 0.00486884
vn 0.17635 -0.0494955 0.983082
vn 0.0494955 0.17635 0.983082
vn 0.170778 0.0662138 0.983082
vn -0.0662138 0.170778 0.983082
vn -0.707104 -0.00294685 0.707104
vn -0.691513 6.87534e-05 0.722364
vn -0.675587 0.00308433 0.737274
vn -0.058386 -0.986559 -0.152619
vn 0.152619 -0.986559 -0.058386
vn 0.0448623 -0.986559 -0.157126
vn 0.157126 -0.986559 0.0448623
vn -0.67058 0.00405648 0.741826
vn -0.673092 -1.04964e-05 0.739559
vn -0.675585 -0.00407747 0.737271
vn 0.0441782 -0.685516 0.726716
vn 0.0892579 -0.704284 0.704284
vn 0.132164 -0.700904 0.700904
vn 0.132164 -0.700904 0.700904
vn 0 1 0
vn 0.0892579 0.704284 -0.704284
vn 0.0441782 0.685516 -0.726716
vn -1.86443e-09 0.67559 -0.737277
vn -0.00294686 0.642785 -0.766041
vn 0.660108 0.75117 0.000963115
vn 0.669852 0.742494 -0.00105202
vn 0.670458 0.741948 -2.14417e-05
vn 0.672269 0.740301 -0.00309814
vn -0.18242 0.052153 0.981837
vn -0.177228 -0.0677296 0.981837
vn -0.733719 0.679436 -0.0048516
vn -0.735387 0.677648 8.61905e-06
vn -0.737032 0.67584 0.00486884
vn -0.17635 0.0494955 0.983082
vn -0.170778 -0.0662138 0.983082
vn -0.707104 -0.00294685 -0.707104
vn -0.722364 6.87534e-05 -0.691513
vn -0.737274 0.00308433 -0.675587
vn 0.058386 -0.986559 0.152619
vn -0.0448623 -0.986559 0.157126
vn -0.741826 0.00405648 -0.67058
vn -0.739559 -1.04964e-05 -0.673092
vn -0.737271 -0.00407747 -0.675585
vn 0.0441782 0.726716 0.685516
vn 0.0892579 0.704284 0.704284
vn 0.132164 0.700904 0.700904
vn 0.132164 0.700904 0.700904
vn 0.74971 0.205402 0.629082
vn 0.74971 0.205402 0.629082
vn -1.86443e-09 0.737277 0.67559
vn -0.00294686 0.766041 0.642785
vn -0.052153 -0.18242 0.981837
vn 0.0677296 -0.177228 0.981837
vn 0.679436 0.733719 -0.0048516
vn 0.677648 0.735387 8.61905e-06
vn 0.67584 0.737032 0.00486884
vn -0.0494955 -0.17635 0.983082
vn 0.0662138 -0.170778 0.983082
vn 0.707104 -0.00294685 -0.707104
vn 0.691513 6.87534e-05 -0.722364
vn 0.675587 0.00308433 -0.737274
vn -0.152619 -0.986559 0.058386
vn -0.157126 -0.986559 -0.0448623
vn 0.67058 0.00405648 -0.741826
vn 0.673092 -1.04964e-05 -0.739559
vn 0.675585 -0.00407747 -0.737271
vn 0 0 1
vn -0.629082 0.205402 0.74971
vn -0.629082 0.205402 0.74971
vn -1.86443e-09 -0.67559 0.737277
vn -0.00294686 -0.642785 0.766041
vn -0.741948 0.670458 -2.14417e-05
vn -0.740301 0.672269 -0.00309814
vn 0.733719 -0.679436 -0.0048516
vn 0.735387 -0.677648 8.61905e-06
vn 0.737032 -0.67584 0.00486884
vn 0.707104 -0.00294685 0.707104
vn 0.722364 6.87534e-05 0.691513
vn 0.737274 0.00308433 0.675587
vn 0.741826 0.00405648 0.67058
vn 0.739559 -1.04964e-05 0.673092
vn 0.737271 -0.00407747 0.675585
vn 0.132164 -0.700904 -0.700904
vn 0.132164 -0.700904 -0.700904
vn 0.707104 0.707104 -0.00294685
vn 0.693403 0.72055 7.68125e-05
vn 0.679441 0.733724 0.00310045
vn -0.639 -0.76153 0.108399
vn -0.650589 -0.757532 0.0536643
vn 0.672268 0.7403 0.00340832
vn 0.674062 0.738675 -6.40523e-06
vn 0.675844 0.737037 -0.00342113
vn 0.656798 -7.91462e-05 -0.754066
vn 0.670582 -0.00310512 -0.741829
vn -0.634437 -0.756092 0.160672
vn -0.634437 -0.756092 0.160672
vn 0.132164 0.700904 -0.700904
vn 0.132164 0.700904 -0.700904
vt 0.745969 0.01
vt 0.867984 0.01
vt 0.745969 0.224748
vt 0.867984 0.224748
vt 0.99 0.498063
vt 0.867984 0.498063
vt 0.99 0.306503
vt 0.867984 0.306503
vt 0.867984 0.233782
vt 0.745969 0.233782
vt 0.623953 0.248208
vt 0.501937 0.248208
vt 0.623953 0.252079
vt 0.501937 0.252079
vt 0.867984 0.283008
vt 0.745969 0.283008
vt 0.867984 0.248208
vt 0.745969 0.248208
vt 0.376047 0.99
vt 0.254031 0.99
vt 0.376047 0.783793
vt 0.254031 0.783793
vt 0.01 0.778525
vt 0.132016 0.778525
vt 0.01 0.783793
vt 0.132016 0.783793
vt 0.501937 0.498063
vt 0.623953 0.498063
vt 0.623953 0.518272
vt 0.01 0.99
vt 0.132016 0.99
vt 0.132016 1.02123
vt 0.99 0.01
vt 0.99 0.224748
vt 0.99 0.279137
vt 0.867984 0.279137
vt 0.99 0.233782
vt 0.745969 0.252079
vt 0.99 0.283008
vt 0.99 0.248208
vt 0.498063 0.99
vt 0.498063 0.783793
vt 0.376047 0.778525
vt 0.498063 0.778525
vt 0.745969 0.498063
vt 0.745969 0.518272
vt 0.254031 1.02123
vt 0.623953 0.01
vt 0.623953 0.224748
vt 0.745969 0.306503
vt 0.745969 0.279137
vt 0.623953 0.233782
vt 0.99 0.252079
vt 0.867984 0.252079
vt 0.623953 0.283008
vt 0.254031 0.778525
vt 0.01 0.01
vt 0.376047 0.01
vt 0.132016 -0.0156233
vt 0.254031 -0.0156233
vt 0.254031 0.01
vt 0.254031 0.498063
vt 0.376047 0.498063
vt 0.623953 0.306503
vt 0.501937 0.243045
vt 0.623953 0.243045
vt 0.745969 0.243045
vt 0.867984 0.243045
vt 0.254031 0.501937
vt 0.376047 0.501937
vt 0.254031 0.745969
vt 0.376047 0.745969
vt 0.132016 0.751238
vt 0.01 0.751238
vt 0.132016 0.745969
vt 0.01 0.745969
vt 0.376047 0.751238
vt 0.254031 0.751238
vt 0.132016 0.01
vt 0.132016 0.498063
vt 0.501937 0.306503
vt 0.623953 0.279137
vt 0.501937 0.279137
vt 0.132016 0.501937
vt 0.498063 0.751238
vt 0.498063 0.745969
vt 0.01 0.498063
vt 0.501937 0.233782
vt 0.501937 0.283008
vt 0.01 0.501937
vt 0.498063 0.01
vt 0.498063 0.498063
vt 0.99 0.243045
vt 0.498063 0.501937
vt 0.501937 0.01
vt 0.501937 0.224748
mtllib Axis_Helper.mtl
usemtl Default
g Default
f 19/1/1 20/2/2 27/3/2
f 28/4/3 27/3/2 20/2/2
f 21/5/4 24/6/5 37/7/6
f 40/8/7 37/7/6 24/6/5
f 44/9/8 43/10/9 28/4/10
f 27/3/11 28/4/10 43/10/9
f 50/11/12 49/12/13 30/13/14
f 29/14/15 30/13/14 49/12/13
f 56/15/16 55/16/17 52/17/17
f 51/18/18 52/17/17 55/16/17
f 16/19/19 15/20/20 64/21/21
f 63/22/22 64/21/21 15/20/20
f 69/23/23 70/24/24 61/25/25
f 62/26/26 61/25/25 70/24/24
f 21/27/27 22/28/28 73/27/29
f 74/29/30 73/27/29 22/28/28
f 13/30/31 14/31/32 81/30/33
f 82/32/34 81/30/33 14/31/32
f 20/2/35 17/33/36 28/4/36
f 25/34/37 28/4/36 17/33/36
f 37/7/6 40/8/7 33/35/38
f 36/36/39 33/35/38 40/8/7
f 41/37/40 44/9/8 25/34/41
f 28/4/10 25/34/41 44/9/8
f 51/18/42 50/11/12 31/38/43
f 30/13/14 31/38/43 50/11/12
f 53/39/44 56/15/45 49/40/45
f 52/17/46 49/40/45 56/15/45
f 13/41/47 16/19/48 61/42/49
f 64/21/50 61/42/49 16/19/48
f 72/43/51 69/44/23 64/21/52
f 61/42/25 64/21/52 69/44/23
f 22/28/53 23/45/54 74/29/55
f 75/46/56 74/29/55 23/45/54
f 14/31/57 15/20/58 82/32/59
f 83/47/60 82/32/59 15/20/58
f 18/48/61 19/1/62 26/49/62
f 27/3/63 26/49/62 19/1/62
f 40/8/64 39/50/65 36/36/66
f 35/51/67 36/36/66 39/50/65
f 43/10/9 42/52/68 27/3/11
f 26/49/69 27/3/11 42/52/68
f 49/40/13 52/17/70 29/53/15
f 32/54/71 29/53/15 52/17/70
f 55/16/72 54/55/73 51/18/73
f 50/11/74 51/18/73 54/55/73
f 15/20/58 14/31/57 63/22/75
f 62/26/76 63/22/75 14/31/57
f 70/24/24 71/56/77 62/26/26
f 63/22/78 62/26/26 71/56/77
f 24/6/5 21/27/4 76/6/79
f 73/27/80 76/6/79 21/27/4
f 77/57/81 80/58/81 78/59/81
f 79/60/81 78/59/81 80/58/81
f 3/61/82 4/58/83 7/62/84
f 8/63/85 7/62/84 4/58/83
f 23/45/54 22/28/53 39/50/86
f 38/64/87 39/50/86 22/28/53
f 45/65/88 46/66/89 29/14/90
f 30/13/91 29/14/90 46/66/89
f 43/10/92 44/9/93 47/67/93
f 48/68/94 47/67/93 44/9/93
f 55/16/95 56/15/96 35/51/97
f 36/36/98 35/51/97 56/15/96
f 11/69/99 12/70/100 59/71/100
f 60/72/101 59/71/100 12/70/100
f 66/73/102 65/74/103 58/75/104
f 57/76/105 58/75/104 65/74/103
f 72/43/106 71/56/107 68/77/107
f 67/78/108 68/77/107 71/56/107
f 1/57/109 4/58/110 77/57/111
f 80/58/112 77/57/111 4/58/110
f 81/30/113 82/32/113 84/19/113
f 83/47/113 84/19/113 82/32/113
f 2/79/114 3/61/115 6/80/116
f 7/62/117 6/80/116 3/61/115
f 38/64/118 37/81/119 34/82/120
f 33/83/121 34/82/120 37/81/119
f 46/66/89 47/67/122 30/13/91
f 31/38/123 30/13/91 47/67/122
f 42/52/124 43/10/125 46/66/125
f 47/67/126 46/66/125 43/10/125
f 56/15/96 53/39/127 36/36/98
f 33/35/128 36/36/98 53/39/127
f 10/84/129 11/69/130 58/75/130
f 59/71/131 58/75/130 11/69/130
f 65/85/103 68/77/132 57/86/105
f 60/72/133 57/86/105 68/77/132
f 71/56/134 70/24/135 67/78/135
f 66/73/136 67/78/135 70/24/135
f 2/79/137 1/57/138 78/59/139
f 77/57/140 78/59/139 1/57/138
f 16/19/48 13/30/47 84/19/141
f 81/30/142 84/19/141 13/30/47
f 1/57/138 2/79/137 5/87/143
f 6/80/144 5/87/143 2/79/137
f 22/28/28 21/27/27 38/64/118
f 37/81/119 38/64/118 21/27/27
f 47/67/122 48/68/145 31/38/123
f 32/54/146 31/38/123 48/68/145
f 41/88/147 42/52/148 45/65/148
f 46/66/149 45/65/148 42/52/148
f 53/89/127 54/55/150 33/83/128
f 34/82/151 33/83/128 54/55/150
f 9/90/152 10/84/153 57/76/153
f 58/75/154 57/76/153 10/84/153
f 68/77/132 67/78/155 60/72/133
f 59/71/156 60/72/133 67/78/155
f 70/24/157 69/23/158 66/73/158
f 65/74/159 66/73/158 69/23/158
f 73/27/160 74/29/160 76/6/160
f 75/46/160 76/6/160 74/29/160
f 15/20/20 16/19/19 83/47/161
f 84/19/162 83/47/161 16/19/19
f 4/58/110 1/91/109 8/63/163
f 5/92/164 8/63/163 1/91/109
f 39/50/86 38/64/87 35/51/165
f 34/82/166 35/51/165 38/64/87
f 48/68/145 45/93/88 32/54/146
f 29/53/90 32/54/146 45/93/88
f 44/9/167 41/37/168 48/68/168
f 45/93/169 48/68/168 41/37/168
f 54/55/150 55/16/95 34/82/151
f 35/51/97 34/82/151 55/16/95
f 12/70/170 9/94/171 60/72/171
f 57/86/172 60/72/171 9/94/171
f 67/78/155 66/73/102 59/71/156
f 58/75/104 59/71/156 66/73/102
f 69/44/173 72/43/174 65/85/174
f 68/77/175 65/85/174 72/43/174
f 4/58/83 3/61/82 80/58/176
f 79/60/177 80/58/176 3/61/82
f 17/95/178 18/48/179 25/96/179
f 26/49/180 25/96/179 18/48/179
f 24/6/181 23/45/182 40/8/64
f 39/50/65 40/8/64 23/45/182
f 42/52/68 41/88/40 26/49/69
f 25/96/41 26/49/69 41/88/40
f 52/17/70 51/18/42 32/54/71
f 31/38/43 32/54/71 51/18/42
f 54/55/183 53/89/184 50/11/184
f 49/12/185 50/11/184 53/89/184
f 14/31/32 13/30/31 62/26/186
f 61/25/187 62/26/186 13/30/31
f 71/56/77 72/43/51 63/22/78
f 64/21/52 63/22/78 72/43/51
f 23/45/182 24/6/181 75/46/188
f 76/6/189 75/46/188 24/6/181
f 3/61/115 2/79/114 79/60/190
f 78/59/191 79/60/190 2/79/114
